<svg version="1" xmlns="http://www.w3.org/2000/svg" width="682.667" height="682.667" viewBox="0 0 512.000000 512.000000"><path d="M59.1 16.7c-8.4 4.2-14 11.1-15.8 19.5-1.3 5.9-1.4 447.5-.1 453.2 2 8.8 6.2 14.4 14.3 19.2 6.3 3.6 16.2 4.4 23.4 1.8 8.9-3.2 18.1-14.1 18.1-21.5 0-1.5.5-3.1 1-3.4.7-.4.7-1.2.2-1.8-1-1.4-.9-5.7.1-7.5.5-.6.4-1.2-.1-1.2-.4 0-.7-1.7-.6-3.8.1-2 .3-3.7.4-3.7.1 0 .3-1 .4-2.2.2-1.3 0-2.3-.4-2.3-.9 0-.6-9.3.4-10.8.4-.7.3-1.2-.2-1.2-1 0-.9-5 .2-6.8.4-.7.3-1.2-.2-1.2-.4 0-.7-1.7-.6-3.7.1-2.1.3-3.8.4-3.8.1 0 .3-1 .4-2.3.2-1.2 0-2.2-.4-2.2-.3 0-.6-2.2-.6-5 .1-2.7.5-5 1-5s.4-.6-.1-1.3c-1.1-1.4-1.1-5.7 0-7.4.5-.7.4-1.3-.1-1.3-.4 0-.7-1.7-.6-3.8.1-2 .3-3.7.4-3.7.1 0 .3-1 .4-2.2.2-1.3 0-2.3-.4-2.3-.9 0-.6-9.3.4-10.8.4-.7.3-1.2-.2-1.2-.4 0-.8-1.4-.8-3 0-1.7.3-3 .8-3s.4-.8-.1-1.8c-.7-1.3-.6-2.3.1-3 .8-.8.8-1.2.2-1.2-1.2 0-1.2-8.9 0-10.8.4-.7.3-1.2-.2-1.2-.4 0-.7-1.7-.6-3.8.1-2 .3-3.7.4-3.7.1 0 .3-1 .4-2.3.2-1.2 0-2.2-.4-2.2-.9 0-.6-6.7.3-7.6.4-.4 1.7-.2 3 .4 6.5 3.1 27.5 8.3 39.2 9.6 2.2.3 4 .5 4 .6 0 .4 10.9 1.1 24.5 1.5 30.5.9 68.5-4.4 122-17 5.8-1.3 12.3-2.7 14.5-3.1 2.2-.3 4.2-.7 4.5-.9.4-.2 2.8-.7 5.6-1 6.6-.9 12.9-2.1 12.9-2.5 0-.1 1.8-.3 4-.6 5-.5 10-1.2 10-1.4 0-.6 21.4-2.1 31.5-2.2 7.9 0 11.7.2 27.5 1.8 10.9 1.1 23.8 4.2 37.3 8.9 14.8 5.2 17.9 5.3 23.2.8 6.2-5.1 5.8 4.7 5.6-147l-.1-139.2-2.1-2.8c-3.4-4.6-8-7.1-20.8-11.2-20.6-6.7-49.3-11.4-60.8-10.1-2.6.3-5.5.3-6.5-.1s-2.3-.2-3 .3c-.7.6-1.4.5-1.8-.2-.5-.8-1.1-.8-2.1.1-1.1.9-1.4.9-1.4 0 0-.7-.5-.9-1.2-.5s-4 .8-7.3.9c-3.4.1-6.6.4-7.1.6-.5.2-2.8.4-5.1.4-2.4 0-4.3.2-4.3.5s-2 .5-4.5.5-4.5.2-4.5.5-1.5.5-3.2.5c-1.8 0-3.7.2-4.3.4-.5.3-1.9.7-3 .8-1.1.2-4.2.7-7 1.3-5.4 1-9.8 1.9-13 2.5-10.7 2-29.1 5.6-49.2 9.6-27.1 5.4-45.8 8.5-57.8 9.3-4.4.4-11.4.9-15.5 1.3-6.4.6-16.3.6-29.7 0-1.8-.1-3.3-.4-3.3-.7 0-.3-1.5-.6-3.2-.7-4.8-.4-8-.8-10.3-1.6-1.1-.3-3.6-.8-5.6-1.1-2-.3-4.9-1-6.5-1.6-1.6-.6-3-1.1-3.1-1.1-.2 0-.8-.1-1.5-.4-.7-.2-3.5-1.1-6.2-2-2.6-.8-5.8-2.1-7-2.7-1.1-.7-3.2-1.4-4.6-1.6-3.1-.4-3.4-.8-3.7-4-.2-1.5-.4-3.6-.6-4.8-.3-2.2-3.6-7.9-6.4-11-2.9-3.2-8.9-7.4-9.6-6.7-.4.3-.7.2-.7-.4 0-1.2-.3-1.2-10.2-1.7-6.6-.3-8.4 0-12.7 2.1z"/></svg>